<svg width="658" height="265" viewBox="0 0 658 265" fill="none" xmlns="http://www.w3.org/2000/svg">
<path d="M123.17 263.258V237.358H134.381C136.699 237.358 138.697 237.74 140.375 238.505C142.052 239.245 143.347 240.318 144.26 241.724C145.172 243.13 145.629 244.807 145.629 246.756C145.629 248.68 145.172 250.345 144.26 251.751C143.347 253.132 142.052 254.193 140.375 254.933C138.697 255.673 136.699 256.043 134.381 256.043H126.5L129.164 253.416V263.258H123.17ZM139.635 263.258L133.16 253.86H139.561L146.11 263.258H139.635ZM129.164 254.082L126.5 251.27H134.048C135.898 251.27 137.279 250.875 138.192 250.086C139.104 249.272 139.561 248.162 139.561 246.756C139.561 245.325 139.104 244.215 138.192 243.426C137.279 242.636 135.898 242.242 134.048 242.242H126.5L129.164 239.393V254.082ZM171.801 247.792H184.27V252.454H171.801V247.792ZM172.245 258.448H186.342V263.258H166.288V237.358H185.861V242.168H172.245V258.448ZM203.617 263.258L215.161 237.358H221.081L232.662 263.258H226.372L216.9 240.392H219.268L209.759 263.258H203.617ZM209.389 257.708L210.98 253.157H224.3L225.928 257.708H209.389ZM251.259 263.258V237.358H257.253V258.374H270.24V263.258H251.259ZM321.401 247.792H333.87V252.454H321.401V247.792ZM321.845 258.448H335.942V263.258H315.888V237.358H335.461V242.168H321.845V258.448ZM365.131 263.702C363.059 263.702 361.073 263.43 359.174 262.888C357.275 262.32 355.745 261.593 354.586 260.705L356.621 256.191C357.731 256.98 359.038 257.634 360.543 258.152C362.072 258.645 363.614 258.892 365.168 258.892C366.352 258.892 367.302 258.781 368.017 258.559C368.757 258.312 369.3 257.979 369.645 257.56C369.99 257.14 370.163 256.659 370.163 256.117C370.163 255.426 369.892 254.883 369.349 254.489C368.806 254.069 368.091 253.736 367.203 253.49C366.315 253.218 365.328 252.972 364.243 252.75C363.182 252.503 362.109 252.207 361.024 251.862C359.963 251.516 358.989 251.072 358.101 250.53C357.213 249.987 356.485 249.272 355.918 248.384C355.375 247.496 355.104 246.361 355.104 244.98C355.104 243.5 355.499 242.155 356.288 240.947C357.102 239.713 358.311 238.739 359.914 238.024C361.542 237.284 363.577 236.914 366.019 236.914C367.647 236.914 369.25 237.111 370.829 237.506C372.408 237.876 373.801 238.443 375.01 239.208L373.16 243.759C371.951 243.068 370.743 242.562 369.534 242.242C368.325 241.896 367.141 241.724 365.982 241.724C364.823 241.724 363.873 241.859 363.133 242.131C362.393 242.402 361.863 242.76 361.542 243.204C361.221 243.623 361.061 244.116 361.061 244.684C361.061 245.35 361.332 245.892 361.875 246.312C362.418 246.706 363.133 247.027 364.021 247.274C364.909 247.52 365.883 247.767 366.944 248.014C368.029 248.26 369.102 248.544 370.163 248.865C371.248 249.185 372.235 249.617 373.123 250.16C374.011 250.702 374.726 251.418 375.269 252.306C375.836 253.194 376.12 254.316 376.12 255.673C376.12 257.128 375.713 258.46 374.899 259.669C374.085 260.877 372.864 261.852 371.236 262.592C369.633 263.332 367.598 263.702 365.131 263.702ZM401.129 263.258V242.242H392.841V237.358H415.411V242.242H407.123V263.258H401.129ZM429.842 263.258L441.386 237.358H447.306L458.887 263.258H452.597L443.125 240.392H445.493L435.984 263.258H429.842ZM435.614 257.708L437.205 253.157H450.525L452.153 257.708H435.614ZM481.548 263.258V242.242H473.26V237.358H495.83V242.242H487.542V263.258H481.548ZM520.478 247.792H532.947V252.454H520.478V247.792ZM520.922 258.448H535.019V263.258H514.965V237.358H534.538V242.168H520.922V258.448Z" fill="white"/>
<path d="M111.179 103.758V167.558C111.179 174.324 112.242 180.124 114.369 184.958C116.495 189.791 119.492 193.513 123.359 196.123C127.322 198.636 132.059 199.893 137.569 199.893C143.175 199.893 147.912 198.684 151.779 196.268C155.742 193.851 158.787 190.371 160.914 185.828C163.04 181.284 164.104 175.823 164.104 169.443V103.758H176.719V167.993C176.719 176.113 175.027 183.121 171.644 189.018C168.26 194.914 163.33 199.458 156.854 202.648C150.377 205.741 142.499 207.288 133.219 207.288C121.425 207.288 111.662 205.741 103.929 202.648C96.292 199.458 90.637 194.963 86.9636 189.163C83.2903 183.266 81.4536 176.258 81.4536 168.138V103.758H111.179ZM81.8886 103.758V112.458H81.4536C81.4536 110.331 80.6803 108.591 79.1336 107.238C77.6836 105.884 75.8953 105.208 73.7686 105.208C73.7686 105.208 73.382 105.208 72.6086 105.208C71.8353 105.208 71.4486 105.208 71.4486 105.208V103.758H81.8886ZM121.184 103.758V105.208C121.184 105.208 120.797 105.208 120.024 105.208C119.25 105.208 118.864 105.208 118.864 105.208C116.737 105.208 114.9 105.884 113.354 107.238C111.904 108.591 111.179 110.331 111.179 112.458H110.889V103.758H121.184ZM164.539 103.758V112.458H164.104C164.104 110.331 163.33 108.591 161.784 107.238C160.334 105.884 158.545 105.208 156.419 105.208C156.419 105.208 156.032 105.208 155.259 105.208C154.485 105.208 154.099 105.208 154.099 105.208V103.758H164.539ZM186.724 103.758V105.208C186.724 105.208 186.337 105.208 185.564 105.208C184.79 105.208 184.404 105.208 184.404 105.208C182.277 105.208 180.44 105.884 178.894 107.238C177.444 108.591 176.719 110.331 176.719 112.458H176.429V103.758H186.724ZM257.785 103.758H275.33C279.68 103.758 284.127 104.144 288.67 104.918C293.213 105.691 297.37 107.093 301.14 109.123C304.91 111.056 307.955 113.811 310.275 117.388C312.595 120.964 313.755 125.556 313.755 131.163C313.755 134.836 313.078 138.654 311.725 142.618C310.372 146.484 308.003 149.916 304.62 152.913C301.333 155.813 296.645 157.746 290.555 158.713C294.615 159.873 298.143 161.854 301.14 164.658C304.137 167.461 306.505 170.313 308.245 173.213C308.438 173.503 308.922 174.324 309.695 175.678C310.468 177.031 311.435 178.723 312.595 180.753C313.852 182.686 315.157 184.716 316.51 186.843C317.863 188.969 319.217 190.951 320.57 192.788C322.793 195.784 324.727 198.056 326.37 199.603C328.013 201.149 329.657 202.213 331.3 202.793C333.04 203.373 335.07 203.711 337.39 203.808V205.258H319.265C313.465 205.258 308.1 204.919 303.17 204.243C298.24 203.566 293.793 202.068 289.83 199.748C285.963 197.428 282.532 193.754 279.535 188.728C278.472 186.988 277.602 185.248 276.925 183.508C276.248 181.768 275.668 180.076 275.185 178.433C274.702 176.789 274.267 175.243 273.88 173.793C273.59 172.246 273.3 170.796 273.01 169.443C272.72 167.993 272.382 166.639 271.995 165.383C271.028 161.903 269.868 159.534 268.515 158.278C267.162 157.021 265.808 156.151 264.455 155.668V154.218C264.842 154.218 265.277 154.218 265.76 154.218C266.243 154.218 266.582 154.218 266.775 154.218C269.482 154.218 271.898 153.589 274.025 152.333C276.152 151.076 277.94 149.143 279.39 146.533C280.84 143.923 281.807 140.539 282.29 136.383C282.387 135.609 282.483 134.788 282.58 133.918C282.677 132.951 282.677 131.791 282.58 130.438C282.193 123.284 280.405 118.306 277.215 115.503C274.122 112.699 270.4 111.298 266.05 111.298C265.567 111.298 264.938 111.298 264.165 111.298C263.392 111.298 262.57 111.298 261.7 111.298C260.83 111.298 260.008 111.298 259.235 111.298C259.235 111.298 259.09 110.669 258.8 109.413C258.607 108.156 258.365 106.899 258.075 105.643C257.882 104.386 257.785 103.758 257.785 103.758ZM259.67 103.758V205.258H229.8V103.758H259.67ZM230.235 194.673V205.258H218.635V203.808C218.828 203.808 219.167 203.808 219.65 203.808C220.133 203.808 220.423 203.808 220.52 203.808C223.033 203.808 225.16 202.938 226.9 201.198C228.737 199.361 229.703 197.186 229.8 194.673H230.235ZM230.235 114.343H229.8C229.703 111.829 228.737 109.703 226.9 107.963C225.16 106.126 223.033 105.208 220.52 105.208C220.423 105.208 220.133 105.208 219.65 105.208C219.167 105.208 218.828 105.208 218.635 105.208V103.758H230.235V114.343ZM259.235 194.673H259.67C259.67 197.186 260.588 199.361 262.425 201.198C264.262 202.938 266.437 203.808 268.95 203.808C269.143 203.808 269.433 203.808 269.82 203.808C270.303 203.808 270.593 203.808 270.69 203.808V205.258H259.235V194.673ZM397.27 101.728C399.397 101.728 402.249 101.824 405.825 102.018C409.402 102.211 413.124 102.501 416.99 102.888C420.857 103.178 424.24 103.516 427.14 103.903C430.04 104.193 431.925 104.531 432.795 104.918L429.895 126.813H428.445C428.445 121.496 426.367 117.194 422.21 113.908C418.15 110.621 412.544 108.978 405.39 108.978C399.494 108.978 394.805 110.138 391.325 112.458C387.845 114.681 385.96 117.581 385.67 121.158C385.38 124.638 386.54 127.344 389.15 129.278C391.857 131.211 394.999 132.999 398.575 134.643L425.69 147.258C431.104 149.674 435.357 153.203 438.45 157.843C441.544 162.483 442.849 168.331 442.365 175.388C441.689 185.731 437.339 193.658 429.315 199.168C421.389 204.581 410.562 207.288 396.835 207.288C391.229 207.288 386.154 206.853 381.61 205.983C377.067 205.113 373.152 204.001 369.865 202.648C366.675 201.198 364.21 199.603 362.47 197.863C361.407 195.446 360.972 192.498 361.165 189.018C361.359 185.538 361.987 182.106 363.05 178.723C364.21 175.243 365.564 172.488 367.11 170.458H368.415C368.125 175.484 369.189 180.269 371.605 184.813C374.022 189.356 377.647 193.029 382.48 195.833C387.314 198.636 393.114 200.038 399.88 200.038C406.84 200.038 411.964 198.588 415.25 195.688C418.634 192.788 420.325 189.501 420.325 185.828C420.325 182.734 419.117 179.931 416.7 177.418C414.38 174.904 410.465 172.391 404.955 169.878L381.32 158.858C374.65 155.764 369.769 151.511 366.675 146.098C363.679 140.684 362.615 134.546 363.485 127.683C364.162 122.076 365.95 117.339 368.85 113.473C371.75 109.606 375.569 106.706 380.305 104.773C385.139 102.743 390.794 101.728 397.27 101.728ZM433.085 103.178L432.65 106.223H411.625V103.178H433.085ZM515.445 103.758V167.558C515.445 174.324 516.509 180.124 518.635 184.958C520.762 189.791 523.759 193.513 527.625 196.123C531.589 198.636 536.325 199.893 541.835 199.893C547.442 199.893 552.179 198.684 556.045 196.268C560.009 193.851 563.054 190.371 565.18 185.828C567.307 181.284 568.37 175.823 568.37 169.443V103.758H580.985V167.993C580.985 176.113 579.294 183.121 575.91 189.018C572.527 194.914 567.597 199.458 561.12 202.648C554.644 205.741 546.765 207.288 537.485 207.288C525.692 207.288 515.929 205.741 508.195 202.648C500.559 199.458 494.904 194.963 491.23 189.163C487.557 183.266 485.72 176.258 485.72 168.138V103.758H515.445ZM486.155 103.758V112.458H485.72C485.72 110.331 484.947 108.591 483.4 107.238C481.95 105.884 480.162 105.208 478.035 105.208C478.035 105.208 477.649 105.208 476.875 105.208C476.102 105.208 475.715 105.208 475.715 105.208V103.758H486.155ZM525.45 103.758V105.208C525.45 105.208 525.064 105.208 524.29 105.208C523.517 105.208 523.13 105.208 523.13 105.208C521.004 105.208 519.167 105.884 517.62 107.238C516.17 108.591 515.445 110.331 515.445 112.458H515.155V103.758H525.45ZM568.805 103.758V112.458H568.37C568.37 110.331 567.597 108.591 566.05 107.238C564.6 105.884 562.812 105.208 560.685 105.208C560.685 105.208 560.299 105.208 559.525 105.208C558.752 105.208 558.365 105.208 558.365 105.208V103.758H568.805ZM590.99 103.758V105.208C590.99 105.208 590.604 105.208 589.83 105.208C589.057 105.208 588.67 105.208 588.67 105.208C586.544 105.208 584.707 105.884 583.16 107.238C581.71 108.591 580.985 110.331 580.985 112.458H580.695V103.758H590.99Z" fill="white"/>
<path d="M184.099 65.2578C246.183 51.1094 317.772 24.1885 327.083 20.6459C327.755 20.3902 328.449 20.3833 329.127 20.6241C339.77 24.4065 430.694 56.4877 491.099 70.2578C555.34 84.9025 657.099 95.2578 657.099 95.2578C657.099 95.2578 551.34 75.8077 487.099 57.2578C427.011 39.9073 340.225 5.14679 329.253 0.724272C328.504 0.422407 327.722 0.422103 326.981 0.742054C317.41 4.87247 248.219 34.4402 190.099 51.2578C124.577 70.217 0.0986328 95.2578 0.0986328 95.2578C0.0986328 95.2578 113.599 81.3239 184.099 65.2578Z" fill="white" stroke="white"/>
<path d="M269.599 53.2578C293.288 46.7972 321.87 38.5104 327.069 36.9996C327.613 36.8414 328.168 36.8347 328.713 36.9913C334.474 38.6466 369.585 48.729 392.653 55.2578C419.153 62.7578 464.099 71.7578 464.099 71.7578C464.099 71.7578 419.619 58.6778 394.099 51.2578C371.009 44.5445 335.511 31.5607 328.959 29.1485C328.273 28.8962 327.542 28.8958 326.859 29.156C320.931 31.4158 290.908 42.7579 268.599 49.2578C242.57 56.8415 193.599 70.7578 193.599 70.7578C193.599 70.7578 242.099 60.7578 269.599 53.2578Z" fill="white" stroke="white"/>
</svg>
